# xmcd
#
# Track frame offsets:
#	150
#	20575
#	35024
#	57638
#	89807
#	128638
#	157361
#	180366
#
# Disc length: 2804 seconds
#
# Revision: 1
# Processed by: cddbd v1.5.2PL0 Copyright (c) Steve Scherf et al.
# Submitted via: EasyCDDAExtractor 9.0.0.1
#
DISCID=710af208
DTITLE=Kiss - Budokan Hall Tokyo 02-04-78 Disc 2
DYEAR=1978
DGENRE=Hard Rock
TTITLE0=Calling Dr Love
TTITLE1=Shout It Out Loud
TTITLE2=Gene Solo - God Of Thunder
TTITLE3=Peter Solo - God Of Thunder
TTITLE4=Rock And Roll All Nite
TTITLE5=Detroit Rock City
TTITLE6=Beth
TTITLE7=Black Diamond
EXTD=
EXTT0=
EXTT1=
EXTT2=
EXTT3=
EXTT4=
EXTT5=
EXTT6=
EXTT7=
PLAYORDER=
